# xmcd
#
# Track frame offsets:
# 150
# 8387
# 23788
# 38781
# 53985
# 66233
# 85566
# 95873
# 111055
# 120502
# 136897
# 146736
# 166600
# 175691
# 193364
# 208429
#
# Disc length: 2914 seconds
#
#
# Revision: 0
# Processed by: cddbd v1.5.1PL0 Copyright (c) Steve Scherf et al.
# Submitted via: FreeRIP 2.931 
#
DISCID=d90b6010
DTITLE=Perrys - Remembering the Happy Goodmans
DYEAR=2005
DGENRE=Gospel
TTITLE0=When They Ring the Bells of Heaven
TTITLE1=Who Am I
TTITLE2=Shoutin' Sounds
TTITLE3=Over the Next Hill (We'll Be Home)
TTITLE4=I Wouldn't Take Nothing For My Journey Now
TTITLE5=How Much More
TTITLE6=When It All Starts Happening, I'll Be There
TTITLE7=Eastern Gate
TTITLE8=I'm Living in Canaan Now
TTITLE9=I Don't Regret a Mile
TTITLE10=Sweetest Song I Know
TTITLE11=Wait'll You See My Brand New Home
TTITLE12=I'm Too Near Home
TTITLE13=God Walks the Dark Hills
TTITLE14=What A Beautiful Day
TTITLE15=When Morning Sweeps the Eastern Sky
EXTD=
EXTT0=
EXTT1=
EXTT2=
EXTT3=
EXTT4=
EXTT5=
EXTT6=
EXTT7=
EXTT8=
EXTT9=
EXTT10=
EXTT11=
EXTT12=
EXTT13=
EXTT14=
EXTT15=
PLAYORDER=
